<svg width="23" height="22" viewBox="0 0 23 22" fill="none" xmlns="http://www.w3.org/2000/svg">
<path d="M2.3 22C1.6675 22 1.12623 21.7848 0.6762 21.3543C0.226167 20.9238 0.000766667 20.4057 0 19.8V8.8C0 8.195 0.2254 7.67727 0.6762 7.2468C1.127 6.81633 1.66827 6.60073 2.3 6.6H20.7C21.3325 6.6 21.8741 6.8156 22.3249 7.2468C22.7757 7.678 23.0008 8.19573 23 8.8V19.8C23 20.405 22.775 20.9231 22.3249 21.3543C21.8749 21.7855 21.3333 22.0007 20.7 22H2.3ZM2.3 19.8H20.7V8.8H2.3V19.8ZM9.2 18.7L16.1 14.3L9.2 9.9V18.7ZM2.3 5.5V3.3H20.7V5.5H2.3ZM5.75 2.2V0H17.25V2.2H5.75Z" fill="#EF018D"/>
</svg>
