<svg width="22" height="22" viewBox="0 0 22 22" fill="none" xmlns="http://www.w3.org/2000/svg">
<path d="M15.5834 1.375H6.4167C5.8091 1.37564 5.22658 1.61729 4.79695 2.04692C4.36731 2.47655 4.12567 3.05907 4.12503 3.66667V19.2482C4.12332 19.5115 4.19801 19.7697 4.34006 19.9914C4.4821 20.2131 4.6854 20.3889 4.92532 20.4974C5.10659 20.5813 5.30387 20.625 5.50361 20.6254C5.83088 20.625 6.14706 20.5068 6.39432 20.2924L10.7028 16.6007C10.7854 16.5289 10.8911 16.4894 11.0006 16.4895C11.11 16.4896 11.2157 16.5292 11.2981 16.6012L15.6057 20.292C15.8053 20.4632 16.0498 20.5735 16.3102 20.6099C16.5706 20.6463 16.836 20.6072 17.0749 20.4974C17.3138 20.3875 17.5161 20.2114 17.6579 19.99C17.7998 19.7686 17.8751 19.5111 17.875 19.2482V3.66667C17.8744 3.05907 17.6327 2.47655 17.2031 2.04692C16.7735 1.61729 16.191 1.37564 15.5834 1.375ZM16.9584 19.2482C16.9585 19.3359 16.9334 19.4218 16.8862 19.4956C16.8389 19.5695 16.7714 19.6282 16.6918 19.6649C16.6121 19.7015 16.5236 19.7145 16.4367 19.7023C16.3499 19.69 16.2684 19.6532 16.2019 19.596L11.8952 15.9051C11.6469 15.6899 11.3292 15.5713 11.0006 15.5712C10.6719 15.5712 10.3542 15.6896 10.1057 15.9047L5.79813 19.5964C5.73158 19.6535 5.65005 19.6903 5.56322 19.7024C5.47639 19.7145 5.38791 19.7015 5.30827 19.6648C5.22863 19.6282 5.16119 19.5694 5.11394 19.4956C5.06668 19.4217 5.04161 19.3359 5.0417 19.2482V3.66667C5.04209 3.30212 5.18709 2.95261 5.44486 2.69483C5.70264 2.43706 6.05215 2.29206 6.4167 2.29167H15.5834C15.9479 2.29206 16.2974 2.43706 16.5552 2.69483C16.813 2.95261 16.958 3.30212 16.9584 3.66667V19.2482Z" fill="#5A5A5A" stroke="#AFAFAF"/>
</svg>
