<svg width="23" height="22" viewBox="0 0 23 22" fill="none" xmlns="http://www.w3.org/2000/svg">
<path d="M5.74997 17.875H8.19424C8.30591 18.6376 8.70197 19.3359 9.30945 19.8413C9.91693 20.3466 10.6949 20.6249 11.5 20.6249C12.305 20.6249 13.083 20.3466 13.6905 19.8413C14.298 19.3359 14.694 18.6376 14.8057 17.875H17.25C17.6949 17.875 18.1311 17.7566 18.5097 17.5328C18.8882 17.3091 19.1941 16.989 19.3931 16.6083C19.5921 16.2276 19.6763 15.8014 19.6363 15.3775C19.5963 14.9536 19.4337 14.5487 19.1666 14.2083C18.8567 13.8111 18.6887 13.3289 18.6875 12.8333V8.51896C18.7105 6.69976 17.9991 4.94215 16.7015 3.61202C15.4038 2.28189 13.6198 1.48173 11.7208 1.37812C10.7588 1.34984 9.80066 1.50666 8.90321 1.83928C8.00575 2.1719 7.18727 2.67354 6.49633 3.31444C5.80539 3.95534 5.25605 4.72245 4.88091 5.57027C4.50577 6.41808 4.31247 7.32933 4.31247 8.24995V12.8333C4.31139 13.329 4.14336 13.8111 3.8333 14.2083C3.56638 14.5488 3.40385 14.9536 3.36392 15.3775C3.32399 15.8013 3.40822 16.2274 3.6072 16.6081C3.80617 16.9887 4.11202 17.3089 4.49048 17.5326C4.86893 17.7564 5.30505 17.8749 5.74997 17.875ZM11.5 19.7083C10.9479 19.7076 10.4131 19.5248 9.98547 19.1909C9.55788 18.8569 9.26374 18.3922 9.15263 17.875H13.8474C13.7363 18.3922 13.4422 18.857 13.0146 19.191C12.5869 19.5249 12.052 19.7076 11.5 19.7083ZM4.59978 14.7584C5.03416 14.2024 5.26948 13.5273 5.2708 12.8333V8.24995C5.27077 6.67001 5.92678 5.15475 7.09457 4.03739C8.26236 2.92003 9.8463 2.29207 11.4981 2.29162C11.5626 2.29162 11.6272 2.29253 11.6918 2.29475C13.3422 2.38958 14.8908 3.08949 16.0153 4.24882C17.1398 5.40816 17.7537 6.93762 17.7291 8.51892V12.8333C17.7307 13.527 17.9656 14.2018 18.3992 14.7579C18.5596 14.9621 18.6574 15.205 18.6815 15.4594C18.7057 15.7138 18.6553 15.9695 18.5359 16.198C18.4166 16.4265 18.2331 16.6187 18.0059 16.753C17.7788 16.8873 17.517 16.9584 17.25 16.9583H5.74997C5.483 16.9583 5.22129 16.8872 4.99418 16.753C4.76707 16.6188 4.58352 16.4267 4.46411 16.1983C4.3447 15.9699 4.29414 15.7143 4.3181 15.4599C4.34206 15.2056 4.4396 14.9627 4.59978 14.7584Z" fill="#5A5A5A" stroke="#AFAFAF"/>
</svg>
