<svg width="24" height="24" viewBox="0 0 24 24" fill="none" xmlns="http://www.w3.org/2000/svg">
<path d="M13.6719 16.8H8.68658C8.3297 15.4227 7.08914 14.4 5.59994 14.4C3.83282 14.4 2.40002 15.8328 2.40002 17.5999C2.40002 19.3671 3.83282 20.8001 5.59994 20.8001C7.08914 20.8001 8.3297 19.7772 8.68658 18.4001H13.6716L13.6719 16.8Z" fill="#AEADAA"/>
<path d="M18.4001 14.4C18.1085 14.4 17.832 14.4516 17.5642 14.5243L15.0416 10.1102L13.6508 10.9015L16.1703 15.3101C15.5736 15.8913 15.2 16.7009 15.2 17.5999C15.2 19.367 16.633 20.8001 18.4001 20.8001C20.1672 20.8001 21.6 19.367 21.6 17.5999C21.6 15.8328 20.1672 14.4 18.4001 14.4Z" fill="#AEADAA"/>
<path d="M12 3.19995C10.2329 3.19995 8.80005 4.63299 8.80005 6.40011C8.80005 7.29915 9.17349 8.10867 9.77037 8.68995L7.25085 13.0985L8.64141 13.8898L11.1641 9.47571C11.4321 9.54843 11.7086 9.60003 12 9.60003C13.7671 9.60003 15.1999 8.16723 15.1999 6.40011C15.1999 4.63299 13.7671 3.19995 12 3.19995Z" fill="#AEADAA"/>
</svg>
