<svg width="14" height="8" viewBox="0 0 14 8" fill="none" xmlns="http://www.w3.org/2000/svg">
<path d="M7 7.16668C6.78582 7.16709 6.57826 7.0925 6.41334 6.95584L0.913337 2.37251C0.523516 2.0485 0.470164 1.46983 0.794171 1.08001C1.11818 0.690188 1.69685 0.636835 2.08667 0.960842L7 5.06751L11.9133 1.10751C12.1027 0.953719 12.3456 0.881763 12.5882 0.90757C12.8308 0.933377 13.0531 1.05482 13.2058 1.24501C13.3755 1.43555 13.4582 1.6882 13.4338 1.94219C13.4094 2.19618 13.2803 2.42853 13.0775 2.58334L7.5775 7.01084C7.40784 7.1259 7.20451 7.18077 7 7.16668Z" fill="#36342F"/>
</svg>
