<svg width="21" height="21" viewBox="0 0 21 21" fill="none" xmlns="http://www.w3.org/2000/svg">
<path d="M10.5 2.09973C5.86045 2.09973 2.09998 5.54646 2.09998 9.7998C2.09998 11.4685 2.68504 13.0086 3.67036 14.2705L2.15332 17.9318C2.00569 18.2895 2.17516 18.6981 2.53216 18.8464C2.71129 18.9203 2.9026 18.9155 3.06808 18.8464L7.53478 16.9965C8.45731 17.3165 9.45418 17.4999 10.5 17.4999C15.1403 17.4999 18.9 14.051 18.9 9.7998C18.9 5.54646 15.1403 2.09973 10.5 2.09973ZM14.6821 10.2496L11.0777 13.9952C10.7597 14.3123 10.2402 14.3123 9.92227 13.9952L6.31783 10.2496C5.8741 9.80547 5.60005 9.1929 5.60005 8.51754C5.60005 7.16409 6.6973 6.06747 8.04991 6.06747C8.72611 6.06747 9.33868 6.34089 9.7822 6.78525L10.4993 7.50303L11.2171 6.78525C11.6606 6.34089 12.2732 6.06747 12.95 6.06747C14.3027 6.06747 15.3999 7.16409 15.3999 8.51754C15.3999 9.19269 15.125 9.80526 14.6821 10.2496Z" fill="#AEADAA"/>
</svg>
