<svg width="12" height="12" viewBox="0 0 12 12" fill="none" xmlns="http://www.w3.org/2000/svg">
<path fill-rule="evenodd" clip-rule="evenodd" d="M8.08112 0.50009C8.44929 0.50009 8.81687 0.550116 9.16636 0.663097C11.3199 1.33761 12.0959 3.61408 11.4477 5.60389C11.0801 6.62072 10.4792 7.54873 9.69207 8.30699C8.5654 9.35811 7.32903 10.2912 5.99815 11.095L5.85228 11.1798L5.70058 11.0894C4.36503 10.2912 3.12167 9.35811 1.9845 8.30137C1.20265 7.54311 0.601101 6.62072 0.227683 5.60389C-0.431632 3.61408 0.344376 1.33761 2.52128 0.651293C2.69049 0.595083 2.86494 0.555737 3.03998 0.533815H3.11C3.27395 0.51077 3.43674 0.50009 3.60011 0.50009H3.66429C4.03187 0.51077 4.38779 0.5726 4.73261 0.68558H4.76704C4.79038 0.69626 4.80788 0.708064 4.81955 0.718744C4.9485 0.758652 5.07044 0.80362 5.18713 0.86545L5.40885 0.961006C5.46243 0.988533 5.52256 1.03059 5.57453 1.06694C5.60746 1.08998 5.63711 1.11071 5.65974 1.12401C5.66926 1.12942 5.67894 1.13487 5.68869 1.14035C5.73872 1.16849 5.79084 1.19779 5.83478 1.23025C6.48301 0.753031 7.2701 0.494469 8.08112 0.50009ZM9.63338 4.54724C9.87257 4.54105 10.0768 4.35615 10.0943 4.11953V4.05265C10.1118 3.26525 9.61646 2.55203 8.86329 2.27664C8.62409 2.19739 8.36157 2.3216 8.27406 2.55765C8.19238 2.7937 8.32073 3.05224 8.56575 3.13598C8.93971 3.27087 9.18999 3.62551 9.18999 4.01837V4.03579C9.17891 4.16449 9.21916 4.2887 9.30084 4.38425C9.38251 4.47979 9.50503 4.53543 9.63338 4.54724Z" fill="#EF018D"/>
</svg>
