<svg width="21" height="21" viewBox="0 0 21 21" fill="none" xmlns="http://www.w3.org/2000/svg">
<path fill-rule="evenodd" clip-rule="evenodd" d="M10.142 14.1585L14.2605 10.434L14.9048 9.73997C15.3187 9.29437 15.5512 8.68988 15.5512 8.05955C15.5512 7.42923 15.3187 6.82474 14.9048 6.37914C14.4907 5.93284 13.9294 5.68237 13.3443 5.68237C12.7591 5.68237 12.1979 5.93284 11.7839 6.3789L10.142 8.14745L8.50009 6.3789C7.63835 5.4507 6.2412 5.4507 5.37946 6.3789C4.51772 7.3071 4.51772 8.81201 5.37946 9.74021L6.02358 10.434L10.142 14.1585ZM10.1417 6.08759L10.8286 5.34769C11.4958 4.62938 12.4006 4.22583 13.344 4.22583C14.2879 4.22583 15.1932 4.62985 15.8605 5.34897C16.5281 6.06774 16.9032 7.04282 16.9032 8.05956C16.9032 9.07631 16.5281 10.0514 15.8605 10.7702L15.1747 11.5088L10.1461 16.0564C10.1436 16.0587 5.10872 11.5088 5.10872 11.5088L4.42299 10.7702C3.03316 9.27314 3.03316 6.84599 4.42299 5.34897C5.81281 3.85195 8.06617 3.85195 9.456 5.34897L10.1417 6.08759Z" fill="#C2C2C2"/>
<mask id="mask0_4_10627" style="mask-type:luminance" maskUnits="userSpaceOnUse" x="2" y="3" width="16" height="15">
<path fill-rule="evenodd" clip-rule="evenodd" d="M10.1425 14.8099L14.9289 10.4814L15.6777 9.6748C16.1588 9.15693 16.429 8.4544 16.429 7.72185C16.429 6.9893 16.1588 6.28677 15.6777 5.7689C15.1964 5.25023 14.5442 4.95914 13.8641 4.95914C13.184 4.95914 12.5318 5.25023 12.0507 5.76862L10.1425 7.82401L8.23431 5.76862C7.23281 4.68989 5.60907 4.68989 4.60757 5.76862C3.60607 6.84736 3.60607 8.59634 4.60757 9.67508L5.35615 10.4814L10.1425 14.8099ZM10.1418 5.43006L10.9401 4.57017C11.7156 3.73535 12.767 3.26636 13.8634 3.26636C14.9604 3.26636 16.0125 3.73591 16.7881 4.57165C17.564 5.407 17.9999 6.54021 17.9999 7.72185C17.9999 8.90349 17.564 10.0367 16.7881 10.8721L15.9911 11.7305L10.1469 17.0156C10.144 17.0183 4.29255 11.7305 4.29255 11.7305L3.4956 10.8721C1.88037 9.13225 1.88037 6.31146 3.4956 4.57165C5.11084 2.83184 7.72965 2.83184 9.34488 4.57165L10.1418 5.43006Z" fill="white"/>
</mask>
<g mask="url(#mask0_4_10627)">
</g>
</svg>
