<svg width="64" height="64" viewBox="0 0 64 64" fill="none" xmlns="http://www.w3.org/2000/svg">
<g filter="url(#filter0_d_1_4903)">
<rect x="10.2324" y="6" width="43.768" height="43.768" rx="21.884" fill="white"/>
</g>
<path fill-rule="evenodd" clip-rule="evenodd" d="M35.7599 19.2869C36.3569 19.2869 36.9529 19.3711 37.5197 19.5613C41.0118 20.6966 42.2701 24.5283 41.219 27.8776C40.6229 29.5891 39.6484 31.1511 38.3721 32.4274C36.5452 34.1967 34.5404 35.7672 32.3823 37.1201L32.1458 37.263L31.8998 37.1107C29.7341 35.7672 27.718 34.1967 25.874 32.418C24.6062 31.1417 23.6308 29.5891 23.0252 27.8776C21.9561 24.5283 23.2145 20.6966 26.7444 19.5414C27.0188 19.4468 27.3017 19.3806 27.5855 19.3437H27.699C27.9649 19.3049 28.2289 19.2869 28.4938 19.2869H28.5978C29.1939 19.3049 29.771 19.4089 30.3302 19.5991H30.386C30.4238 19.6171 30.4522 19.637 30.4711 19.6549C30.6802 19.7221 30.878 19.7978 31.0672 19.9019L31.4267 20.0627C31.5136 20.109 31.6111 20.1798 31.6954 20.241C31.7488 20.2798 31.7968 20.3147 31.8335 20.3371C31.849 20.3462 31.8647 20.3553 31.8805 20.3646C31.9616 20.4119 32.0461 20.4613 32.1174 20.5159C33.1685 19.7126 34.4448 19.2774 35.7599 19.2869ZM38.2765 26.0994C38.6644 26.0889 38.9956 25.7777 39.0239 25.3794V25.2668C39.0523 23.9413 38.2491 22.7407 37.0277 22.2771C36.6397 22.1437 36.214 22.3528 36.0721 22.7501C35.9396 23.1475 36.1478 23.5827 36.5451 23.7237C37.1516 23.9507 37.5575 24.5477 37.5575 25.2091V25.2384C37.5395 25.455 37.6048 25.6641 37.7372 25.825C37.8697 25.9858 38.0684 26.0795 38.2765 26.0994Z" fill="#C5C5C5"/>
<defs>
<filter id="filter0_d_1_4903" x="0.232422" y="0" width="63.7679" height="63.7679" filterUnits="userSpaceOnUse" color-interpolation-filters="sRGB">
<feFlood flood-opacity="0" result="BackgroundImageFix"/>
<feColorMatrix in="SourceAlpha" type="matrix" values="0 0 0 0 0 0 0 0 0 0 0 0 0 0 0 0 0 0 127 0" result="hardAlpha"/>
<feOffset dy="4"/>
<feGaussianBlur stdDeviation="5"/>
<feComposite in2="hardAlpha" operator="out"/>
<feColorMatrix type="matrix" values="0 0 0 0 0 0 0 0 0 0 0 0 0 0 0 0 0 0 0.1 0"/>
<feBlend mode="normal" in2="BackgroundImageFix" result="effect1_dropShadow_1_4903"/>
<feBlend mode="normal" in="SourceGraphic" in2="effect1_dropShadow_1_4903" result="shape"/>
</filter>
</defs>
</svg>
