<svg width="30" height="31" viewBox="0 0 30 31" fill="none" xmlns="http://www.w3.org/2000/svg">
<g clip-path="url(#clip0_1_7545)">
<path fill-rule="evenodd" clip-rule="evenodd" d="M15 30.5C23.2838 30.5 30 23.7838 30 15.5C30 7.21625 23.2838 0.5 15 0.5C6.71625 0.5 0 7.21625 0 15.5C0 23.7838 6.71625 30.5 15 30.5ZM13.125 21.125C13.875 21.125 14.5838 20.8288 15.1125 20.2944L21.9525 13.1075C22.6838 12.3669 22.6838 11.1706 21.9525 10.43C21.2213 9.68937 20.0325 9.68937 19.3012 10.43L13.125 16.9475L10.7006 14.18C9.96937 13.4394 8.7825 13.4394 8.04938 14.18C7.31813 14.9206 7.31813 16.1169 8.04938 16.8575L11.1356 20.2944C11.6663 20.8288 12.3713 21.125 13.125 21.125Z" fill="white"/>
</g>
<defs>
<clipPath id="clip0_1_7545">
<rect width="30" height="30" fill="white" transform="translate(0 0.5)"/>
</clipPath>
</defs>
</svg>
