<svg width="56" height="56" viewBox="0 0 56 56" fill="none" xmlns="http://www.w3.org/2000/svg">
<circle cx="28" cy="28" r="28" fill="#F3F3F4"/>
<path fill-rule="evenodd" clip-rule="evenodd" d="M26.0391 20.5C25.2172 20.5057 24.5705 20.9324 24.193 21.6737L23.8717 22.3314L23.4624 23.1953C23.4368 23.2493 23.3845 23.2871 23.3251 23.2948L23.2627 23.2975C21.2942 23.2962 19.6667 24.9217 19.6667 26.9274V31.8688C19.6667 33.874 21.2945 35.5 23.3026 35.5H32.6984C34.7058 35.5 36.3334 33.8738 36.3334 31.8688V26.9274C36.3334 24.9935 34.8166 23.4019 32.8909 23.3012L32.7147 23.2964C32.6298 23.2962 32.5678 23.2569 32.5384 23.1948L32.0022 22.0677C31.9249 21.9082 31.8607 21.7784 31.8067 21.6728C31.4311 20.9329 30.7833 20.5057 29.9611 20.5H26.0391ZM29.9567 21.7486C30.292 21.7509 30.5218 21.9024 30.6927 22.2391L30.8261 22.5069L31.4082 23.7283C31.6263 24.1886 32.0706 24.4948 32.572 24.5392L32.842 24.5487C34.0881 24.6141 35.0834 25.6585 35.0834 26.9273V31.8687C35.0834 33.1841 34.0154 34.2512 32.6984 34.2512H23.3026C21.9848 34.2512 20.9167 33.1842 20.9167 31.8687V26.9273C20.9167 25.6112 21.9845 24.5448 23.3026 24.5448L23.4446 24.537C23.9655 24.4714 24.3841 24.1688 24.5925 23.7288L25.1208 22.6175C25.1957 22.4627 25.2571 22.3382 25.3072 22.2396C25.479 21.9022 25.7084 21.7509 26.0478 21.7485L29.9567 21.7486ZM24.7264 29.1074C24.7254 30.9062 26.1978 32.3799 28.0018 32.3789C29.8026 32.3768 31.2708 30.9092 31.2739 29.1092C31.2769 27.3595 29.8999 25.9235 28.1721 25.8336L28.0038 25.8291C26.1943 25.8271 24.7119 27.3147 24.7264 29.1074ZM30.0239 29.1069C30.022 30.219 29.1118 31.1288 28.0007 31.13C26.8885 31.1307 25.9757 30.2171 25.9764 29.1025C25.9678 28.0434 26.815 27.1505 27.8695 27.0819L28.0023 27.0776C29.1172 27.0789 30.0258 27.9903 30.0239 29.1069ZM31.5687 26.9059C31.6517 26.99 31.7374 27.0459 31.8365 27.0899C31.9256 27.1257 32.0051 27.1467 32.0856 27.155L32.1668 27.1591L32.2495 27.155C32.4409 27.136 32.6203 27.0515 32.7569 26.9141C32.915 26.7464 33.0002 26.5449 33.0002 26.327C33.0002 26.2136 32.9769 26.1011 32.9309 25.9977L32.912 25.9491C32.8799 25.8805 32.8223 25.7991 32.7538 25.7317C32.5253 25.5035 32.1596 25.4308 31.8522 25.5525C31.7485 25.5981 31.6727 25.65 31.5986 25.7144C31.5013 25.8091 31.4475 25.8961 31.4021 25.9993C31.3567 26.1011 31.3335 26.2136 31.3335 26.327C31.3335 26.5406 31.4198 26.7476 31.5687 26.9059Z" fill="#001C33"/>
</svg>
