<svg width="16" height="15" viewBox="0 0 16 15" fill="none" xmlns="http://www.w3.org/2000/svg">
<path d="M15.918 14.0007C14.7808 11.8608 12.9596 10.2558 10.8047 9.49432C11.4878 9.04928 8.96211 8.43438 9.41177 7.71762C9.86142 7.00086 9.87864 5.03726 10.0121 4.18063C9.67378 4.1651 12.7431 5.20937 12.4624 5.00249C12.1816 4.7956 11.9589 4.5077 11.819 4.17079C11.759 4.17733 11.6988 4.18061 11.6383 4.18063C11.3021 4.18024 10.9725 4.07867 10.6856 3.88707C10.3987 3.69548 10.1657 3.42126 10.0121 3.0945C9.85851 2.76774 9.79026 2.40107 9.81484 2.03472C9.83943 1.66837 9.9559 4.3284 10.1515 4.02961C9.94701 3.71706 9.82914 3.34686 9.81192 2.96314C9.7947 2.57943 9.87887 9.5899 10.0544 9.257C10.0633 9.24013 10.0732 9.22413 10.0825 9.20762C8.80172 8.63256 7.36918 8.60823 6.07262 9.13951C4.77606 9.6708 9.55995 3.13406 8.94118 4.48751C8.3224 5.84095 8.19524 4.38816 8.58523 5.83981C8.97522 7.29146 4.00503 8.72095 5.19518 9.49432C3.0403 10.2558 1.21915 11.8607 0.0819415 14.0005C0.028338 14.1017 7.65681e-05 14.2166 1.55364e-07 14.3335C-7.62574e-05 14.4505 0.0280352 14.5653 0.0815063 14.6666C0.134977 14.7679 0.211922 14.8521 0.304601 14.9106C0.397279 14.969 0.502421 14.9998 0.609451 14.9998L15.3905 15C15.4976 15 15.6027 14.9692 15.6954 14.9107C15.7881 14.8522 15.865 14.7681 15.9185 14.6668C15.972 14.5655 16.0001 14.4506 16 14.3337C15.9999 14.2168 15.9717 14.1019 15.918 14.0007Z" fill="#AEADAA"/>
<rect x="3" width="10" height="10" rx="5" fill="#AEADAA"/>
</svg>
