<svg width="19" height="19" viewBox="0 0 19 19" fill="none" xmlns="http://www.w3.org/2000/svg">
<path d="M18.8981 17.6019L14.7374 13.4412C15.972 11.8759 16.5619 9.8981 16.3864 7.91227C16.2109 5.92643 15.2833 4.0827 13.7933 2.75825C12.3032 1.4338 10.3634 0.728746 8.37073 0.787313C6.37801 0.845879 4.48298 1.66364 3.07331 3.07331C1.66364 4.48298 0.845879 6.37801 0.787313 8.37073C0.728746 10.3634 1.4338 12.3032 2.75825 13.7933C4.0827 15.2833 5.92643 16.2109 7.91227 16.3864C9.8981 16.5619 11.8759 15.972 13.4412 14.7374L17.6019 18.8981L18.8981 17.6019ZM8.62502 14.5834C7.44657 14.5834 6.29459 14.2339 5.31475 13.5792C4.3349 12.9245 3.57121 11.9939 3.12024 10.9052C2.66926 9.81643 2.55127 8.61841 2.78117 7.46261C3.01108 6.3068 3.57855 5.24513 4.41184 4.41184C5.24513 3.57855 6.3068 3.01108 7.46261 2.78117C8.61841 2.55127 9.81643 2.66926 10.9052 3.12024C11.9939 3.57121 12.9245 4.3349 13.5792 5.31475C14.2339 6.29459 14.5834 7.44657 14.5834 8.62502C14.5814 10.2047 13.953 11.7191 12.8361 12.8361C11.7191 13.953 10.2047 14.5814 8.62502 14.5834Z" fill="#AFAFAF"/>
<path d="M18.8981 17.6019L14.7374 13.4412C15.972 11.8759 16.5619 9.8981 16.3864 7.91227C16.2109 5.92643 15.2833 4.0827 13.7933 2.75825C12.3032 1.4338 10.3634 0.728746 8.37073 0.787313C6.37801 0.845879 4.48298 1.66364 3.07331 3.07331C1.66364 4.48298 0.845879 6.37801 0.787313 8.37073C0.728746 10.3634 1.4338 12.3032 2.75825 13.7933C4.0827 15.2833 5.92643 16.2109 7.91227 16.3864C9.8981 16.5619 11.8759 15.972 13.4412 14.7374L17.6019 18.8981L18.8981 17.6019ZM8.62502 14.5834C7.44657 14.5834 6.29459 14.2339 5.31475 13.5792C4.3349 12.9245 3.57121 11.9939 3.12024 10.9052C2.66926 9.81643 2.55127 8.61841 2.78117 7.46261C3.01108 6.3068 3.57855 5.24513 4.41184 4.41184C5.24513 3.57855 6.3068 3.01108 7.46261 2.78117C8.61841 2.55127 9.81643 2.66926 10.9052 3.12024C11.9939 3.57121 12.9245 4.3349 13.5792 5.31475C14.2339 6.29459 14.5834 7.44657 14.5834 8.62502C14.5814 10.2047 13.953 11.7191 12.8361 12.8361C11.7191 13.953 10.2047 14.5814 8.62502 14.5834Z" stroke="white"/>
</svg>
