<svg width="22" height="22" viewBox="0 0 22 22" fill="none" xmlns="http://www.w3.org/2000/svg">
<path
    d="M19.8979 18.6022L15.7371 14.4414C16.9718 12.8762 17.5617 10.8983 17.3862 8.91251C17.2107 6.92667 16.283 5.08294 14.793 3.7585C13.303 2.43405 11.3632 1.72899 9.37048 1.78756C7.37777 1.84612 5.48274 2.66389 4.07307 4.07356C2.6634 5.48323 1.84563 7.37826 1.78707 9.37097C1.7285 11.3637 2.43356 13.3035 3.75801 14.7935C5.08246 16.2835 6.92619 17.2112 8.91202 17.3867C10.8979 17.5622 12.8757 16.9722 14.4409 15.7376L18.6017 19.8983L19.8979 18.6022ZM9.62477 15.5836C8.44633 15.5836 7.29434 15.2341 6.3145 14.5794C5.33466 13.9247 4.57096 12.9942 4.11999 11.9054C3.66902 10.8167 3.55103 9.61865 3.78093 8.46285C4.01083 7.30705 4.57831 6.24537 5.4116 5.41209C6.24488 4.5788 7.30656 4.01132 8.46236 3.78142C9.61816 3.55151 10.8162 3.66951 11.9049 4.12048C12.9937 4.57145 13.9242 5.33515 14.5789 6.31499C15.2337 7.29483 15.5831 8.44682 15.5831 9.62526C15.5812 11.2049 14.9528 12.7193 13.8358 13.8363C12.7188 14.9533 11.2044 15.5817 9.62477 15.5836Z" fill="#afafaf" />
<!--<path d="M19.8979 18.6022L15.7371 14.4414C16.9718 12.8762 17.5617 10.8983 17.3862 8.91251C17.2107 6.92667 16.283 5.08294 14.793 3.7585C13.303 2.43405 11.3632 1.72899 9.37048 1.78756C7.37777 1.84612 5.48274 2.66389 4.07307 4.07356C2.6634 5.48323 1.84563 7.37826 1.78707 9.37097C1.7285 11.3637 2.43356 13.3035 3.75801 14.7935C5.08246 16.2835 6.92619 17.2112 8.91202 17.3867C10.8979 17.5622 12.8757 16.9722 14.4409 15.7376L18.6017 19.8983L19.8979 18.6022ZM9.62477 15.5836C8.44633 15.5836 7.29434 15.2341 6.3145 14.5794C5.33466 13.9247 4.57096 12.9942 4.11999 11.9054C3.66902 10.8167 3.55103 9.61865 3.78093 8.46285C4.01083 7.30705 4.57831 6.24537 5.4116 5.41209C6.24488 4.5788 7.30656 4.01132 8.46236 3.78142C9.61816 3.55151 10.8162 3.66951 11.9049 4.12048C12.9937 4.57145 13.9242 5.33515 14.5789 6.31499C15.2337 7.29483 15.5831 8.44682 15.5831 9.62526C15.5812 11.2049 14.9528 12.7193 13.8358 13.8363C12.7188 14.9533 11.2044 15.5817 9.62477 15.5836Z" stroke="#AFAFAF"/>-->
</svg>
