<svg width="20" height="20" viewBox="0 0 20 20" fill="none" xmlns="http://www.w3.org/2000/svg">
<path d="M16.6666 14.0103C15.9302 14.0103 15.3334 13.4431 15.3334 12.7435V7.67738C15.3334 7.62912 15.3268 7.58238 15.3256 7.53412L18 6.48133L17.4896 5.31112L15.1138 6.2463C14.4634 4.14604 12.4218 2.61084 10 2.61084C7.0546 2.61084 4.6666 4.87944 4.6666 7.67738V10.3568L2 11.4065L2.5104 12.5765L4.6666 11.728V12.7441C4.6666 13.4437 4.0698 14.0108 3.3334 14.0108H2.6666V15.2776H7.3334C7.3334 16.6765 8.5274 17.8108 10 17.8108C11.4726 17.8108 12.6666 16.6765 12.6666 15.2776H17.3334V14.0108H16.6666V14.0103ZM6 7.67738C6 5.57902 7.791 3.87738 10 3.87738C11.8658 3.87738 13.4292 5.09338 13.871 6.73479L6 9.83236V7.67738ZM10 16.5441C9.2636 16.5441 8.6666 15.9772 8.6666 15.2776H11.3334C11.3334 15.9772 10.7364 16.5441 10 16.5441ZM5.6302 14.0108C5.8594 13.6365 6 13.2079 6 12.7441V11.2036L14 8.05567V12.7443C14 13.2081 14.1412 13.6367 14.3706 14.011L5.6302 14.0108Z" fill="white"/>
</svg>
