<svg width="19" height="19" viewBox="0 0 19 19" fill="none" xmlns="http://www.w3.org/2000/svg">
<path fill-rule="evenodd" clip-rule="evenodd" d="M9.64267 2.75C8.78275 2.75 8.08564 3.42157 8.08564 4.25C8.08564 5.07843 8.78275 5.75 9.64267 5.75C10.5026 5.75 11.1997 5.07843 11.1997 4.25C11.1997 3.42157 10.5026 2.75 9.64267 2.75ZM8.08564 9.5C8.08564 8.67157 8.78275 8 9.64267 8C10.5026 8 11.1997 8.67157 11.1997 9.5C11.1997 10.3284 10.5026 11 9.64267 11C8.78275 11 8.08564 10.3284 8.08564 9.5ZM8.08564 14.75C8.08564 13.9216 8.78275 13.25 9.64267 13.25C10.5026 13.25 11.1997 13.9216 11.1997 14.75C11.1997 15.5784 10.5026 16.25 9.64267 16.25C8.78275 16.25 8.08564 15.5784 8.08564 14.75Z" fill="#36342F"/>
<mask id="mask0_1_6876" style="mask-type:luminance" maskUnits="userSpaceOnUse" x="8" y="2" width="4" height="15">
<path fill-rule="evenodd" clip-rule="evenodd" d="M9.64267 2.75C8.78275 2.75 8.08564 3.42157 8.08564 4.25C8.08564 5.07843 8.78275 5.75 9.64267 5.75C10.5026 5.75 11.1997 5.07843 11.1997 4.25C11.1997 3.42157 10.5026 2.75 9.64267 2.75ZM8.08564 9.5C8.08564 8.67157 8.78275 8 9.64267 8C10.5026 8 11.1997 8.67157 11.1997 9.5C11.1997 10.3284 10.5026 11 9.64267 11C8.78275 11 8.08564 10.3284 8.08564 9.5ZM8.08564 14.75C8.08564 13.9216 8.78275 13.25 9.64267 13.25C10.5026 13.25 11.1997 13.9216 11.1997 14.75C11.1997 15.5784 10.5026 16.25 9.64267 16.25C8.78275 16.25 8.08564 15.5784 8.08564 14.75Z" fill="white"/>
</mask>
<g mask="url(#mask0_1_6876)">
</g>
</svg>
