<svg width="23" height="23" viewBox="0 0 23 23" fill="none" xmlns="http://www.w3.org/2000/svg">
<g clip-path="url(#clip0_4_6741)">
<path d="M8.26709 16.4353C8.00974 17.3957 8.62268 18.3941 9.63647 18.6657C10.6503 18.9374 11.6803 18.3793 11.9376 17.4188L8.26709 16.4353Z" fill="white"/>
<path d="M16.7634 16.5376C16.0876 16.3565 15.6792 15.6903 15.8507 15.0501L17.0152 10.7041C17.7013 8.14358 16.0663 5.48046 13.3635 4.75625C10.6607 4.03204 7.91316 5.52085 7.22707 8.08138L6.06238 12.428C5.89085 13.0682 5.20419 13.4403 4.52845 13.2592L3.91657 13.0953L3.60597 14.2545L17.0647 17.8607L17.3753 16.7015L16.7634 16.5376Z" fill="white"/>
</g>
<defs>
<clipPath id="clip0_4_6741">
<rect width="19" height="18" fill="white" transform="translate(4.65308 0.558838) rotate(15)"/>
</clipPath>
</defs>
</svg>
