<svg width="22" height="22" viewBox="0 0 22 22" fill="none" xmlns="http://www.w3.org/2000/svg">
<path d="M19.8981 18.6017L15.7374 14.4409C16.972 12.8757 17.5619 10.8979 17.3864 8.91202C17.2109 6.92619 16.2833 5.08246 14.7933 3.75801C13.3032 2.43356 11.3634 1.7285 9.37073 1.78707C7.37801 1.84563 5.48298 2.6634 4.07331 4.07307C2.66364 5.48274 1.84588 7.37777 1.78731 9.37048C1.72875 11.3632 2.4338 13.303 3.75825 14.793C5.0827 16.283 6.92643 17.2107 8.91227 17.3862C10.8981 17.5617 12.8759 16.9718 14.4412 15.7371L18.6019 19.8979L19.8981 18.6017ZM9.62502 15.5831C8.44657 15.5831 7.29459 15.2337 6.31475 14.5789C5.3349 13.9242 4.57121 12.9937 4.12024 11.9049C3.66926 10.8162 3.55127 9.61816 3.78117 8.46236C4.01108 7.30656 4.57855 6.24488 5.41184 5.4116C6.24513 4.57831 7.3068 4.01083 8.46261 3.78093C9.61841 3.55103 10.8164 3.66902 11.9052 4.11999C12.9939 4.57096 13.9245 5.33466 14.5792 6.3145C15.2339 7.29434 15.5834 8.44633 15.5834 9.62477C15.5814 11.2044 14.953 12.7188 13.8361 13.8358C12.7191 14.9528 11.2047 15.5812 9.62502 15.5831Z" fill="#AFAFAF"/>
<path d="M19.8981 18.6017L15.7374 14.4409C16.972 12.8757 17.5619 10.8979 17.3864 8.91202C17.2109 6.92619 16.2833 5.08246 14.7933 3.75801C13.3032 2.43356 11.3634 1.7285 9.37073 1.78707C7.37801 1.84563 5.48298 2.6634 4.07331 4.07307C2.66364 5.48274 1.84588 7.37777 1.78731 9.37048C1.72875 11.3632 2.4338 13.303 3.75825 14.793C5.0827 16.283 6.92643 17.2107 8.91227 17.3862C10.8981 17.5617 12.8759 16.9718 14.4412 15.7371L18.6019 19.8979L19.8981 18.6017ZM9.62502 15.5831C8.44657 15.5831 7.29459 15.2337 6.31475 14.5789C5.3349 13.9242 4.57121 12.9937 4.12024 11.9049C3.66926 10.8162 3.55127 9.61816 3.78117 8.46236C4.01108 7.30656 4.57855 6.24488 5.41184 5.4116C6.24513 4.57831 7.3068 4.01083 8.46261 3.78093C9.61841 3.55103 10.8164 3.66902 11.9052 4.11999C12.9939 4.57096 13.9245 5.33466 14.5792 6.3145C15.2339 7.29434 15.5834 8.44633 15.5834 9.62477C15.5814 11.2044 14.953 12.7188 13.8361 13.8358C12.7191 14.9528 11.2047 15.5812 9.62502 15.5831Z" stroke="white"/>
</svg>
