<svg width="21" height="20" viewBox="0 0 21 20" fill="none" xmlns="http://www.w3.org/2000/svg">
<path d="M16.0997 12.6668C15.3286 12.6668 14.6314 12.9636 14.1248 13.4442L10.873 11.6082C11.0815 11.1106 11.1997 10.5692 11.1997 10C11.1997 9.431 11.0815 8.8894 10.8724 8.3918L14.1248 6.5558C14.6314 7.0362 15.3286 7.3332 16.0997 7.3332C17.6465 7.3334 18.8996 6.14 18.8996 4.6666C18.8996 3.194 17.6465 2 16.0997 2C14.5534 2 13.2995 3.194 13.2995 4.6666C13.2995 4.9244 13.3501 5.1678 13.4213 5.4036L10.1607 7.2434C9.32655 6.2806 8.0634 5.6666 6.64968 5.6666C4.13661 5.6666 2.09961 7.6068 2.09961 10C2.09961 12.3938 4.13661 14.3332 6.64968 14.3332C8.06319 14.3332 9.32655 13.7196 10.1607 12.7566L13.4213 14.5968C13.3501 14.832 13.2995 15.076 13.2995 15.3332C13.2995 16.8066 14.5534 18 16.0997 18C17.6465 18 18.8996 16.8066 18.8996 15.3332C18.8996 13.8606 17.6465 12.6668 16.0997 12.6668ZM16.0997 3.3334C16.8714 3.3334 17.4995 3.9314 17.4995 4.6668C17.4995 5.4024 16.8714 6.0002 16.0997 6.0002C15.3277 6 14.6996 5.4024 14.6996 4.6666C14.6996 3.9314 15.3277 3.3334 16.0997 3.3334ZM6.64968 13C4.91277 13 3.49968 11.6542 3.49968 10C3.49968 8.3458 4.91277 7 6.64968 7C8.38659 7 9.79968 8.3458 9.79968 10C9.79968 11.6542 8.38659 13 6.64968 13ZM16.0997 16.6668C15.3277 16.6668 14.6996 16.0684 14.6996 15.3332C14.6996 14.5984 15.3277 14 16.0997 14C16.8714 14 17.4995 14.5984 17.4995 15.3332C17.4995 16.0684 16.8714 16.6668 16.0997 16.6668Z" fill="#36342F"/>
</svg>
