<svg width="7" height="13" viewBox="0 0 7 13" fill="none" xmlns="http://www.w3.org/2000/svg">
<path d="M6.75803 0.411938C6.59758 0.256685 6.39003 0.170878 6.17495 0.170878C5.95987 0.170878 5.75231 0.256685 5.59186 0.411938L0.24079 5.75094C0.165023 5.82456 0.104421 5.91467 0.0629319 6.01538C0.0214433 6.11609 -5.48565e-07 6.22514 -5.38923e-07 6.33544C-5.29281e-07 6.44573 0.0214433 6.55479 0.062932 6.6555C0.104421 6.75621 0.165023 6.84631 0.24079 6.91994L5.59186 12.2589C5.75231 12.4142 5.95987 12.5 6.17495 12.5C6.39003 12.5 6.59758 12.4142 6.75803 12.2589C6.83395 12.1859 6.89472 12.0963 6.93634 11.996C6.97796 11.8957 6.99948 11.7869 6.99948 11.6769C6.99948 11.5669 6.97796 11.4582 6.93634 11.3579C6.89472 11.2576 6.83395 11.1679 6.75803 11.0949L1.98912 6.33594L6.75803 1.57694C6.8341 1.50394 6.895 1.41426 6.93672 1.31385C6.97843 1.21343 7 1.10456 7 0.994438C7 0.884314 6.97843 0.775443 6.93672 0.675028C6.895 0.574613 6.8341 0.484939 6.75803 0.411938Z" fill="white"/>
</svg>
